<svg width="93" height="100" viewBox="0 0 93 100" fill="none" xmlns="http://www.w3.org/2000/svg">
<path d="M73.5922 8.38379L85.2059 20.8851L76.3536 30.4132L64.7399 17.9119L73.5922 8.38379Z" fill="#C4C4C4"/>
<path d="M31.0581 66.6667H42.671L70.8787 36.3042L59.2658 23.8042L31.0581 54.1667V66.6667Z" fill="#C4C4C4"/>
<path d="M73.6387 79.1667H31.6697C31.5691 79.1667 31.4645 79.2083 31.3639 79.2083C31.2362 79.2083 31.1084 79.1708 30.9768 79.1667H19.4452V20.8333H45.9497L53.6916 12.5H19.4452C15.1755 12.5 11.7032 16.2333 11.7032 20.8333V79.1667C11.7032 83.7667 15.1755 87.5 19.4452 87.5H73.6387C77.9123 87.5 81.3807 83.7667 81.3807 79.1667V43.05L73.6387 51.3833V79.1667Z" fill="#C4C4C4"/>
</svg>
