<svg width="37" height="37" viewBox="0 0 37 37" fill="none" xmlns="http://www.w3.org/2000/svg">
<path d="M18.4156 23.0963L16.1175 25.3944L9.22323 18.5001L16.1175 11.6058L18.4156 13.9039L15.4444 16.8751H27.6923V20.1251H15.4444L18.4156 23.0963Z" fill="#0B3298"/>
<path fill-rule="evenodd" clip-rule="evenodd" d="M5.86047 31.1395C-1.12016 24.1589 -1.12016 12.8411 5.86047 5.86047C12.8411 -1.12016 24.1589 -1.12016 31.1395 5.86047C38.1202 12.8411 38.1202 24.1589 31.1395 31.1395C24.1589 38.1202 12.8411 38.1202 5.86047 31.1395ZM8.15856 28.8414C2.44714 23.13 2.44714 13.87 8.15856 8.15856C13.87 2.44714 23.13 2.44714 28.8414 8.15856C34.5529 13.87 34.5529 23.13 28.8414 28.8414C23.13 34.5529 13.87 34.5529 8.15856 28.8414Z" fill="#0B3298"/>
</svg>
