<svg width="93" height="100" viewBox="0 0 93 100" fill="none" xmlns="http://www.w3.org/2000/svg">
<path d="M15.5742 91.6668H62.0258V83.3335H15.5742V33.3335H7.83228V83.3335C7.83228 87.9293 11.3045 91.6668 15.5742 91.6668Z" fill="#C4C4C4"/>
<path d="M77.5097 8.3335H31.0581C26.7884 8.3335 23.3161 12.071 23.3161 16.6668V66.6668C23.3161 71.2627 26.7884 75.0002 31.0581 75.0002H77.5097C81.7794 75.0002 85.2516 71.2627 85.2516 66.6668V16.6668C85.2516 12.071 81.7794 8.3335 77.5097 8.3335ZM69.7678 45.8335H58.1549V58.3335H50.4129V45.8335H38.8V37.5002H50.4129V25.0002H58.1549V37.5002H69.7678V45.8335Z" fill="#C4C4C4"/>
</svg>
